<svg xmlns="http://www.w3.org/2000/svg" xml:space="preserve" viewBox="0 0 1600 1600">
  <path fill="gray" d="M340 692c-5 0-10 5-15 7-44 27-150 53-103 123 10 13 28 21 43 28 129 66 256 134 386 197 48 20 91 60 145 58 43-2 428-213 476-233 27-15 58-26 82-46 19-21 19-57-3-76-26-17-56-28-83-44-8-4-21-14-30-14-530 267-370 263-898 0zm5 1 1 1-1-1m2 1 1 1-1-1m2 1 1 1-1-1m880 0 1 1-1-1m-878 1 1 1-1-1m876 0 1 1-1-1m21 0 1 1-1-1m-920 1 1 1-1-1m25 0 1 1-1-1m872 0 1 1-1-1m25 0 1 1-1-1m-924 1 1 1-1-1m29 0 1 1-1-1m868 0 1 1-1-1m29 0 1 1-1-1m-928 1 1 1-1-1m33 0 1 1-1-1m864 0 1 1-1-1m33 0 1 1-1-1m-932 1 1 1-1-1m37 0 1 1-1-1m860 0 1 1-1-1m37 0 1 1-1-1m-936 1 1 1-1-1m41 0 1 1-1-1m856 0 1 1-1-1m41 0 1 1-1-1m-940 1 1 1-1-1m45 0 1 1-1-1m852 0 1 1-1-1m45 0 1 1-1-1m-944 1 1 1-1-1m49 0 1 1-1-1m848 0 1 1-1-1m49 0 1 1-1-1m-948 1 1 1-1-1m53 0 1 1-1-1m844 0 1 1-1-1m53 0 1 1-1-1m-952 1 1 1-1-1m57 0 1 1-1-1m840 0 1 1-1-1m57 0 1 1-1-1m-956 1 1 1-1-1m897 0 1 1-1-1m-2 1 1 1-1-1m76 6 1 1-1-1m-986 1 1 1-1-1m988 0 1 1-1-1m-990 1 1 1-1-1m95 0 1 1-1-1m897 0 1 1-1-1m-994 1 1 1-1-1m99 0 1 1-1-1m897 0 1 1-1-1m-998 1 1 1-1-1m103 0 1 1-1-1m794 0 1 1-1-1m103 0 1 1-1-1m-1002 1 1 1-1-1m107 0 1 1-1-1m790 0 1 1-1-1m107 0 1 1-1-1m-1006 1 1 1-1-1m111 0 1 1-1-1m786 0 1 1-1-1m111 0 1 1-1-1m-1010 1 1 1-1-1m115 0 1 1-1-1m782 0 1 1-1-1m115 0 1 1-1-1m-1014 1 1 1-1-1m119 0 1 1-1-1m778 0 1 1-1-1m119 0 1 1-1-1m-1018 1 1 1-1-1m123 0 1 1-1-1m774 0 1 1-1-1m123 0 1 1-1-1m-1022 1 1 1-1-1m127 0 1 1-1-1m770 0 1 1-1-1m127 0 1 1-1-1m-1026 1 1 1-1-1m131 0 1 1-1-1m766 0 1 1-1-1m-764 1 1 1-1-1m762 0 1 1-1-1m-760 1 1 1-1-1m758 0 1 1-1-1m-756 1 1 1-1-1m754 0 1 1-1-1m-752 1 1 1-1-1m750 0 1 1-1-1m-2 1 1 1-1-1m154 2 1 1-1-1m-1056 1 1 1-1-1m1058 0 1 1-1-1m-1060 1 1 1-1-1m1062 0 1 1-1-1m-1064 1 1 1-1-1m1066 0 1 1-1-1m-1068 1 1 1-1-1m1070 0 1 1-1-1m-1072 1 1 1-1-1m1074 0 1 1-1-1m-1076 1 1 1-1-1m1078 0 1 1-1-1m-1080 1 1 1-1-1m185 0 1 1-1-1m897 0 1 1-1-1m-1084 1 1 1-1-1m189 0 1 1-1-1m897 0 1 1-1-1m-1088 1 1 1-1-1m193 0 1 1-1-1m704 0 1 1-1-1m193 0 1 1-1-1m-1092 1 1 1-1-1m197 0 1 1-1-1m700 0 1 1-1-1m197 0 1 1-1-1m-1096 1 1 1-1-1m201 0 1 1-1-1m696 0 1 1-1-1m201 0 1 1-1-1m-1100 1 1 1-1-1m205 0 1 1-1-1m692 0 1 1-1-1m205 0 1 1-1-1m-1104 1 1 1-1-1m209 0 1 1-1-1m688 0 1 1-1-1m209 0 1 1-1-1m-895 1 1 1-1-1m684 0 1 1-1-1m-898 1 1 1-1-1m216 0 1 1-1-1m680 0 1 1-1-1m216 0 1 1-1-1m-894 1 1 1-1-1m676 0 1 1-1-1m-897 1-1 2 1-2m223 0 1 1-1-1m672 0 1 1-1-1m223 0 2 2-2-2m-893 1 1 1-1-1m668 0 1 1-1-1m-666 1 1 1-1-1m664 0 1 1-1-1m-2 1 1 1-1-1m-2 1 1 1-1-1m238 3 2 2-2-2m-1133 1-1 2 1-2m-3 4 1 1-1-1m257 0 1 1-1-1m883 0 1 1-1-1m-881 1 1 1-1-1m2 1 1 1-1-1m618 0 1 1-1-1m-881 1 1 1-1-1m265 0 1 1-1-1m614 0 1 1-1-1m-612 1 1 1-1-1m610 0 1 1-1-1m-878 1 1 1-1-1m270 0 1 1-1-1m606 0 1 1-1-1m270 0 1 1-1-1m-874 1 1 1-1-1m602 0 1 1-1-1m-875 1 1 1-1-1m275 0 1 1-1-1m598 0 1 1-1-1m275 0 1 1-1-1m-871 1 1 1-1-1m594 0 1 1-1-1m-592 1 1 1-1-1m590 0 1 1-1-1m-588 1 1 1-1-1m586 0 1 1-1-1m-584 1 1 1-1-1m582 0 1 1-1-1m-867 1 1 1-1-1m287 0 1 1-1-1m578 0 1 1-1-1m287 0 1 1-1-1m-863 1 1 1-1-1m574 0 1 1-1-1m-2 1 1 1-1-1m-862 2h1-1m860-1 1 1-1-1m294 1 1 1-1-1m-1155 4 1 1-1-1m1156 1h1-1m-846 2 1 1-1-1m2 1 1 1-1-1m2 1 1 1-1-1m2 1 1 1-1-1m524 0 1 1-1-1m-522 1 1 1-1-1m520 0 1 1-1-1m-518 1 1 1-1-1m516 0 1 1-1-1m-514 1 1 1-1-1m512 0 1 1-1-1m-510 1 1 1-1-1m508 0 1 1-1-1m-506 1 1 1-1-1m504 0 1 1-1-1m-502 1 1 1-1-1m500 0 1 1-1-1m-498 1 1 1-1-1m496 0 1 1-1-1m-494 1 1 1-1-1m492 0 1 1-1-1m-490 1 1 1-1-1m488 0 1 1-1-1m-2 1 1 1-1-1m-2 1 1 1-1-1m338 1h1-1m-1156 0 1 1-1-1m816 0 1 1-1-1m-815 4 1 1-1-1m1154 0 1 1-1-1m-802 3 1 1-1-1m-351 1 1 1-1-1m353 0 1 1-1-1m2 1 1 1-1-1m2 1 1 1-1-1m438 0 1 1-1-1m-436 1 1 1-1-1m434 0 1 1-1-1m-432 1 1 1-1-1m430 0 1 1-1-1m-789 1 1 1-1-1m361 0 1 1-1-1m426 0 1 1-1-1m-424 1 1 1-1-1m422 0 1 1-1-1m-784 1 1 1-1-1m364 0 1 1-1-1m418 0 1 1-1-1m-416 1 1 1-1-1m414 0 1 1-1-1m-779 1 1 1-1-1m367 0 1 1-1-1m410 0 1 1-1-1m-408 1 1 1-1-1m406 0 1 1-1-1m-404 1 1 1-1-1m402 0 1 1-1-1m-771 1 1 1-1-1m371 0 1 1-1-1m398 0 1 1-1-1m371 0 1 1-1-1m-767 1 1 1-1-1m394 0 1 1-1-1m-2 1 1 1-1-1m-2 1 1 1-1-1m-760 1 2 2-2-2m758 0 1 1-1-1m376 0-1 2 1-2m-1127 7 2 2-2-2m1120 0-1 2 1-2m-734 2 1 1-1-1m-382 1 1 1-1-1m384 0 1 1-1-1m728 0 1 1-1-1m-726 1 1 1-1-1m340 0 1 1-1-1m-723 1 1 1-1-1m385 0 1 1-1-1m336 0 1 1-1-1m385 0 1 1-1-1m-719 1 1 1-1-1m332 0 1 1-1-1m385 0 1 1-1-1m-715 1 1 1-1-1m328 0 1 1-1-1m385 0 1 1-1-1m-1096 1 1 1-1-1m385 0 1 1-1-1m324 0 1 1-1-1m385 0 1 1-1-1m-707 1 1 1-1-1m320 0 1 1-1-1m-705 1 1 1-1-1m387 0 1 1-1-1m316 0 1 1-1-1m387 0 1 1-1-1m-1088 1 1 1-1-1m387 0 1 1-1-1m312 0 1 1-1-1m387 0 1 1-1-1m-1084 1 1 1-1-1m387 0 1 1-1-1m308 0 1 1-1-1m387 0 1 1-1-1m-693 1 1 1-1-1m304 0 1 1-1-1m387 0 1 1-1-1m-689 1 1 1-1-1m300 0 1 1-1-1m387 0 1 1-1-1m-685 1 1 1-1-1m296 0 1 1-1-1m-2 1 1 1-1-1m-2 1 1 1-1-1m-2 1 1 1-1-1m-2 1 1 1-1-1m-658 5 1 1-1-1m2 1 1 1-1-1m1032 0 1 1-1-1m-1030 1 1 1-1-1m387 0 1 1-1-1m641 0 1 1-1-1m-1026 1 1 1-1-1m387 0 1 1-1-1m637 0 1 1-1-1m-1022 1 1 1-1-1m387 0 1 1-1-1m633 0 1 1-1-1m-1018 1 1 1-1-1m387 0 1 1-1-1m629 0 1 1-1-1m-1014 1 1 1-1-1m387 0 1 1-1-1m238 0 1 1-1-1m387 0 1 1-1-1m-1010 1 1 1-1-1m387 0 1 1-1-1m234 0 1 1-1-1m387 0 1 1-1-1m-1006 1 1 1-1-1m387 0 1 1-1-1m230 0 1 1-1-1m387 0 1 1-1-1m-1002 1 1 1-1-1m387 0 1 1-1-1m226 0 1 1-1-1m387 0 1 1-1-1m-998 1 1 1-1-1m387 0 1 1-1-1m222 0 1 1-1-1m387 0 1 1-1-1m-994 1 1 1-1-1m387 0 1 1-1-1m218 0 1 1-1-1m387 0 1 1-1-1m-990 1 1 1-1-1m387 0 1 1-1-1m214 0 1 1-1-1m387 0 1 1-1-1m-599 1 1 1-1-1m210 0 1 1-1-1m387 0 1 1-1-1m-595 1 1 1-1-1m206 0 1 1-1-1m387 0 1 1-1-1m-591 1 1 1-1-1m202 0 1 1-1-1m-200 1 1 1-1-1m198 0 1 1-1-1m-196 1 1 1-1-1m194 0 1 1-1-1m-192 1 1 1-1-1m190 0 1 1-1-1m-188 1 1 1-1-1m186 0 1 1-1-1m-184 1 1 1-1-1m182 0 1 1-1-1m-180 1 1 1-1-1m178 0 1 1-1-1m-176 1 1 1-1-1m2 1 1 1-1-1m-386 1 1 1-1-1m388 0 1 1-1-1m166 0 1 1-1-1m-552 1 1 1-1-1m938 0 1 1-1-1m-936 1 1 1-1-1m389 0 1 1-1-1m156 0 1 1-1-1m389 0 1 1-1-1m-932 1 1 1-1-1m541 0 1 1-1-1m389 0 1 1-1-1m-928 1 1 1-1-1m390 0 1 1-1-1m146 0 1 1-1-1m390 0 1 1-1-1m-924 1 1 1-1-1m391 0 1 1-1-1m140 0 1 1-1-1m391 0 1 1-1-1m-920 1 1 1-1-1m918 0 1 1-1-1m-916 1 1 1-1-1m392 0 1 1-1-1m130 0 1 1-1-1m392 0 1 1-1-1m-912 1 1 1-1-1m394 0 1 1-1-1m122 0 1 1-1-1m394 0 1 1-1-1m-908 1 1 1-1-1m395 0 1 1-1-1m116 0 1 1-1-1m395 0 1 1-1-1m-904 1 1 1-1-1m396 0 1 1-1-1m110 0 1 1-1-1m396 0 1 1-1-1m-900 1 1 1-1-1m398 0 1 1-1-1m102 0 1 1-1-1m398 0 1 1-1-1m-896 1 1 1-1-1m400 0 1 1-1-1m94 0 1 1-1-1m400 0 1 1-1-1m-892 1 1 1-1-1m403 0v1-1m85 0v1-1m402 0 1 1-1-1m-482 1 1 1-1-1m74 0 1 1-1-1m-68 1v1-1m63 0v1-1m-55 1v1-1m47 0v1-1m-38 1v1h4l-4-1m25 0v1h4l-4-1m-437 6 1 1-1-1m2 1 1 1-1-1m2 1 1 1-1-1m844 0 1 1-1-1m-842 1 1 1-1-1m840 0 1 1-1-1m-838 1 1 1-1-1m836 0 1 1-1-1m-834 1 1 1-1-1m832 0 1 1-1-1m-830 1 1 1-1-1m828 0 1 1-1-1m-826 1 1 1-1-1m824 0 1 1-1-1m-822 1 1 1-1-1m820 0 1 1-1-1m-818 1 1 1-1-1m816 0 1 1-1-1m-814 1 1 1-1-1m812 0 1 1-1-1m-810 1 1 1-1-1m808 0 1 1-1-1m-806 1 1 1-1-1m804 0 1 1-1-1m-802 1 1 1-1-1m800 0 1 1-1-1m-798 1 1 1-1-1m796 0 1 1-1-1m-2 1 1 1-1-1m-775 9 1 1-1-1m2 1 1 1-1-1m754 0 1 1-1-1m-752 1 1 1-1-1m750 0 1 1-1-1m-748 1 1 1-1-1m746 0 1 1-1-1m-744 1 1 1-1-1m742 0 1 1-1-1m-740 1 1 1-1-1m738 0 1 1-1-1m-736 1 1 1-1-1m734 0 1 1-1-1m-732 1 1 1-1-1m730 0 1 1-1-1m-728 1 1 1-1-1m726 0 1 1-1-1m-724 1 1 1-1-1m722 0 1 1-1-1m-720 1 1 1-1-1m718 0 1 1-1-1m-716 1 1 1-1-1m714 0 1 1-1-1m-712 1 1 1-1-1m710 0 1 1-1-1m-708 1 1 1-1-1m706 0 1 1-1-1m-2 1 1 1-1-1m-2 1 1 1-1-1m-681 9 1 1-1-1m2 1 1 1-1-1m660 0 1 1-1-1m-658 1 1 1-1-1m656 0 1 1-1-1m-654 1 1 1-1-1m652 0 1 1-1-1m-650 1 1 1-1-1m648 0 1 1-1-1m-646 1 1 1-1-1m644 0 1 1-1-1m-642 1 1 1-1-1m640 0 1 1-1-1m-638 1 1 1-1-1m636 0 1 1-1-1m-634 1 1 1-1-1m632 0 1 1-1-1m-630 1 1 1-1-1m628 0 1 1-1-1m-626 1 1 1-1-1m624 0 1 1-1-1m-622 1 1 1-1-1m620 0 1 1-1-1m-618 1 1 1-1-1m616 0 1 1-1-1m-614 1 1 1-1-1m612 0 1 1-1-1m-2 1 1 1-1-1m-589 10 1 1-1-1m2 1 1 1-1-1m566 0 1 1-1-1m-564 1 1 1-1-1m562 0 1 1-1-1m-560 1 1 1-1-1m558 0 1 1-1-1m-556 1 1 1-1-1m554 0 1 1-1-1m-552 1 1 1-1-1m550 0 1 1-1-1m-548 1 1 1-1-1m546 0 1 1-1-1m-544 1 1 1-1-1m542 0 1 1-1-1m-540 1 1 1-1-1m538 0 1 1-1-1m-536 1 1 1-1-1m534 0 1 1-1-1m-532 1 1 1-1-1m530 0 1 1-1-1m-528 1 1 1-1-1m526 0 1 1-1-1m-524 1 1 1-1-1m522 0 1 1-1-1m-2 1 1 1-1-1m-2 1 1 1-1-1m-495 10 1 1-1-1m2 1 1 1-1-1m472 0 1 1-1-1m-470 1 1 1-1-1m468 0 1 1-1-1m-466 1 1 1-1-1m464 0 1 1-1-1m-462 1 1 1-1-1m460 0 1 1-1-1m-458 1 1 1-1-1m456 0 1 1-1-1m-454 1 1 1-1-1m452 0 1 1-1-1m-450 1 1 1-1-1m448 0 1 1-1-1m-446 1 1 1-1-1m444 0 1 1-1-1m-442 1 1 1-1-1m440 0 1 1-1-1m-438 1 1 1-1-1m436 0 1 1-1-1m-668 1 1 1-1-1z"/>
  <path fill="#00f" d="M781 158v1-1zm1 0c-24 4-44 14-66 25L341 375l-81 42c-23 11-45 22-49 50-4 33 21 49 46 63 155 78 311 157 464 237 53 30 90 28 141-2l461-235c22-12 42-24 45-51 4-38-29-52-57-66l-63-33c-131-64-262-133-391-200-23-12-48-25-75-22z"/>
  <path fill="gray" d="M340 1017c-5 0-10 5-15 7-44 27-150 53-103 123 10 13 28 21 43 28 129 66 256 134 386 197 48 20 91 60 145 58 43-2 428-213 476-233 27-15 58-26 82-46 19-21 19-57-3-76-26-17-56-28-83-44-8-4-21-14-30-14-530 267-370 263-898 0zm5 1 1 1-1-1m2 1 1 1-1-1m2 1 1 1-1-1m880 0 1 1-1-1m-878 1 1 1-1-1m876 0 1 1-1-1m21 0 1 1-1-1m-920 1 1 1-1-1m25 0 1 1-1-1m872 0 1 1-1-1m25 0 1 1-1-1m-924 1 1 1-1-1m29 0 1 1-1-1m868 0 1 1-1-1m29 0 1 1-1-1m-928 1 1 1-1-1m33 0 1 1-1-1m864 0 1 1-1-1m33 0 1 1-1-1m-932 1 1 1-1-1m37 0 1 1-1-1m860 0 1 1-1-1m37 0 1 1-1-1m-936 1 1 1-1-1m41 0 1 1-1-1m856 0 1 1-1-1m41 0 1 1-1-1m-940 1 1 1-1-1m45 0 1 1-1-1m852 0 1 1-1-1m45 0 1 1-1-1m-944 1 1 1-1-1m49 0 1 1-1-1m848 0 1 1-1-1m49 0 1 1-1-1m-948 1 1 1-1-1m53 0 1 1-1-1m844 0 1 1-1-1m53 0 1 1-1-1m-952 1 1 1-1-1m57 0 1 1-1-1m840 0 1 1-1-1m57 0 1 1-1-1m-956 1 1 1-1-1m897 0 1 1-1-1m-2 1 1 1-1-1m76 6 1 1-1-1m-986 1 1 1-1-1m988 0 1 1-1-1m-990 1 1 1-1-1m95 0 1 1-1-1m897 0 1 1-1-1m-994 1 1 1-1-1m99 0 1 1-1-1m897 0 1 1-1-1m-998 1 1 1-1-1m103 0 1 1-1-1m794 0 1 1-1-1m103 0 1 1-1-1m-1002 1 1 1-1-1m107 0 1 1-1-1m790 0 1 1-1-1m107 0 1 1-1-1m-1006 1 1 1-1-1m111 0 1 1-1-1m786 0 1 1-1-1m111 0 1 1-1-1m-1010 1 1 1-1-1m115 0 1 1-1-1m782 0 1 1-1-1m115 0 1 1-1-1m-1014 1 1 1-1-1m119 0 1 1-1-1m778 0 1 1-1-1m119 0 1 1-1-1m-1018 1 1 1-1-1m123 0 1 1-1-1m774 0 1 1-1-1m123 0 1 1-1-1m-1022 1 1 1-1-1m127 0 1 1-1-1m770 0 1 1-1-1m127 0 1 1-1-1m-1026 1 1 1-1-1m131 0 1 1-1-1m766 0 1 1-1-1m-764 1 1 1-1-1m762 0 1 1-1-1m-760 1 1 1-1-1m758 0 1 1-1-1m-756 1 1 1-1-1m754 0 1 1-1-1m-752 1 1 1-1-1m750 0 1 1-1-1m-2 1 1 1-1-1m154 2 1 1-1-1m-1056 1 1 1-1-1m1058 0 1 1-1-1m-1060 1 1 1-1-1m1062 0 1 1-1-1m-1064 1 1 1-1-1m1066 0 1 1-1-1m-1068 1 1 1-1-1m1070 0 1 1-1-1m-1072 1 1 1-1-1m1074 0 1 1-1-1m-1076 1 1 1-1-1m1078 0 1 1-1-1m-1080 1 1 1-1-1m185 0 1 1-1-1m897 0 1 1-1-1m-1084 1 1 1-1-1m189 0 1 1-1-1m897 0 1 1-1-1m-1088 1 1 1-1-1m193 0 1 1-1-1m704 0 1 1-1-1m193 0 1 1-1-1m-1092 1 1 1-1-1m197 0 1 1-1-1m700 0 1 1-1-1m197 0 1 1-1-1m-1096 1 1 1-1-1m201 0 1 1-1-1m696 0 1 1-1-1m201 0 1 1-1-1m-1100 1 1 1-1-1m205 0 1 1-1-1m692 0 1 1-1-1m205 0 1 1-1-1m-1104 1 1 1-1-1m209 0 1 1-1-1m688 0 1 1-1-1m209 0 1 1-1-1m-895 1 1 1-1-1m684 0 1 1-1-1m-898 1 1 1-1-1m216 0 1 1-1-1m680 0 1 1-1-1m216 0 1 1-1-1m-894 1 1 1-1-1m676 0 1 1-1-1m-897 1-1 2 1-2m223 0 1 1-1-1m672 0 1 1-1-1m223 0 2 2-2-2m-893 1 1 1-1-1m668 0 1 1-1-1m-666 1 1 1-1-1m664 0 1 1-1-1m-2 1 1 1-1-1m-2 1 1 1-1-1m238 3 2 2-2-2m-1133 1-1 2 1-2m-3 4 1 1-1-1m257 0 1 1-1-1m883 0 1 1-1-1m-881 1 1 1-1-1m2 1 1 1-1-1m618 0 1 1-1-1m-881 1 1 1-1-1m265 0 1 1-1-1m614 0 1 1-1-1m-612 1 1 1-1-1m610 0 1 1-1-1m-878 1 1 1-1-1m270 0 1 1-1-1m606 0 1 1-1-1m270 0 1 1-1-1m-874 1 1 1-1-1m602 0 1 1-1-1m-875 1 1 1-1-1m275 0 1 1-1-1m598 0 1 1-1-1m275 0 1 1-1-1m-871 1 1 1-1-1m594 0 1 1-1-1m-592 1 1 1-1-1m590 0 1 1-1-1m-588 1 1 1-1-1m586 0 1 1-1-1m-584 1 1 1-1-1m582 0 1 1-1-1m-867 1 1 1-1-1m287 0 1 1-1-1m578 0 1 1-1-1m287 0 1 1-1-1m-863 1 1 1-1-1m574 0 1 1-1-1m-2 1 1 1-1-1m-862 2h1-1m860-1 1 1-1-1m294 1 1 1-1-1m-1155 4 1 1-1-1m1156 1h1-1m-846 2 1 1-1-1m2 1 1 1-1-1m2 1 1 1-1-1m2 1 1 1-1-1m524 0 1 1-1-1m-522 1 1 1-1-1m520 0 1 1-1-1m-518 1 1 1-1-1m516 0 1 1-1-1m-514 1 1 1-1-1m512 0 1 1-1-1m-510 1 1 1-1-1m508 0 1 1-1-1m-506 1 1 1-1-1m504 0 1 1-1-1m-502 1 1 1-1-1m500 0 1 1-1-1m-498 1 1 1-1-1m496 0 1 1-1-1m-494 1 1 1-1-1m492 0 1 1-1-1m-490 1 1 1-1-1m488 0 1 1-1-1m-2 1 1 1-1-1m-2 1 1 1-1-1m338 1h1-1m-1156 0 1 1-1-1m816 0 1 1-1-1m-815 4 1 1-1-1m1154 0 1 1-1-1m-802 3 1 1-1-1m-351 1 1 1-1-1m353 0 1 1-1-1m2 1 1 1-1-1m2 1 1 1-1-1m438 0 1 1-1-1m-436 1 1 1-1-1m434 0 1 1-1-1m-432 1 1 1-1-1m430 0 1 1-1-1m-789 1 1 1-1-1m361 0 1 1-1-1m426 0 1 1-1-1m-424 1 1 1-1-1m422 0 1 1-1-1m-784 1 1 1-1-1m364 0 1 1-1-1m418 0 1 1-1-1m-416 1 1 1-1-1m414 0 1 1-1-1m-779 1 1 1-1-1m367 0 1 1-1-1m410 0 1 1-1-1m-408 1 1 1-1-1m406 0 1 1-1-1m-404 1 1 1-1-1m402 0 1 1-1-1m-771 1 1 1-1-1m371 0 1 1-1-1m398 0 1 1-1-1m371 0 1 1-1-1m-767 1 1 1-1-1m394 0 1 1-1-1m-2 1 1 1-1-1m-2 1 1 1-1-1m-760 1 2 2-2-2m758 0 1 1-1-1m376 0-1 2 1-2m-1127 7 2 2-2-2m1120 0-1 2 1-2m-734 2 1 1-1-1m-382 1 1 1-1-1m384 0 1 1-1-1m728 0 1 1-1-1m-726 1 1 1-1-1m340 0 1 1-1-1m-723 1 1 1-1-1m385 0 1 1-1-1m336 0 1 1-1-1m385 0 1 1-1-1m-719 1 1 1-1-1m332 0 1 1-1-1m385 0 1 1-1-1m-715 1 1 1-1-1m328 0 1 1-1-1m385 0 1 1-1-1m-1096 1 1 1-1-1m385 0 1 1-1-1m324 0 1 1-1-1m385 0 1 1-1-1m-707 1 1 1-1-1m320 0 1 1-1-1m-705 1 1 1-1-1m387 0 1 1-1-1m316 0 1 1-1-1m387 0 1 1-1-1m-1088 1 1 1-1-1m387 0 1 1-1-1m312 0 1 1-1-1m387 0 1 1-1-1m-1084 1 1 1-1-1m387 0 1 1-1-1m308 0 1 1-1-1m387 0 1 1-1-1m-693 1 1 1-1-1m304 0 1 1-1-1m387 0 1 1-1-1m-689 1 1 1-1-1m300 0 1 1-1-1m387 0 1 1-1-1m-685 1 1 1-1-1m296 0 1 1-1-1m-2 1 1 1-1-1m-2 1 1 1-1-1m-2 1 1 1-1-1m-2 1 1 1-1-1m-658 5 1 1-1-1m2 1 1 1-1-1m1032 0 1 1-1-1m-1030 1 1 1-1-1m387 0 1 1-1-1m641 0 1 1-1-1m-1026 1 1 1-1-1m387 0 1 1-1-1m637 0 1 1-1-1m-1022 1 1 1-1-1m387 0 1 1-1-1m633 0 1 1-1-1m-1018 1 1 1-1-1m387 0 1 1-1-1m629 0 1 1-1-1m-1014 1 1 1-1-1m387 0 1 1-1-1m238 0 1 1-1-1m387 0 1 1-1-1m-1010 1 1 1-1-1m387 0 1 1-1-1m234 0 1 1-1-1m387 0 1 1-1-1m-1006 1 1 1-1-1m387 0 1 1-1-1m230 0 1 1-1-1m387 0 1 1-1-1m-1002 1 1 1-1-1m387 0 1 1-1-1m226 0 1 1-1-1m387 0 1 1-1-1m-998 1 1 1-1-1m387 0 1 1-1-1m222 0 1 1-1-1m387 0 1 1-1-1m-994 1 1 1-1-1m387 0 1 1-1-1m218 0 1 1-1-1m387 0 1 1-1-1m-990 1 1 1-1-1m387 0 1 1-1-1m214 0 1 1-1-1m387 0 1 1-1-1m-599 1 1 1-1-1m210 0 1 1-1-1m387 0 1 1-1-1m-595 1 1 1-1-1m206 0 1 1-1-1m387 0 1 1-1-1m-591 1 1 1-1-1m202 0 1 1-1-1m-200 1 1 1-1-1m198 0 1 1-1-1m-196 1 1 1-1-1m194 0 1 1-1-1m-192 1 1 1-1-1m190 0 1 1-1-1m-188 1 1 1-1-1m186 0 1 1-1-1m-184 1 1 1-1-1m182 0 1 1-1-1m-180 1 1 1-1-1m178 0 1 1-1-1m-176 1 1 1-1-1m2 1 1 1-1-1m-386 1 1 1-1-1m388 0 1 1-1-1m166 0 1 1-1-1m-552 1 1 1-1-1m938 0 1 1-1-1m-936 1 1 1-1-1m389 0 1 1-1-1m156 0 1 1-1-1m389 0 1 1-1-1m-932 1 1 1-1-1m541 0 1 1-1-1m389 0 1 1-1-1m-928 1 1 1-1-1m390 0 1 1-1-1m146 0 1 1-1-1m390 0 1 1-1-1m-924 1 1 1-1-1m391 0 1 1-1-1m140 0 1 1-1-1m391 0 1 1-1-1m-920 1 1 1-1-1m918 0 1 1-1-1m-916 1 1 1-1-1m392 0 1 1-1-1m130 0 1 1-1-1m392 0 1 1-1-1m-912 1 1 1-1-1m394 0 1 1-1-1m122 0 1 1-1-1m394 0 1 1-1-1m-908 1 1 1-1-1m395 0 1 1-1-1m116 0 1 1-1-1m395 0 1 1-1-1m-904 1 1 1-1-1m396 0 1 1-1-1m110 0 1 1-1-1m396 0 1 1-1-1m-900 1 1 1-1-1m398 0 1 1-1-1m102 0 1 1-1-1m398 0 1 1-1-1m-896 1 1 1-1-1m400 0 1 1-1-1m94 0 1 1-1-1m400 0 1 1-1-1m-892 1 1 1-1-1m403 0v1-1m85 0v1-1m402 0 1 1-1-1m-482 1 1 1-1-1m74 0 1 1-1-1m-68 1v1-1m63 0v1-1m-55 1v1-1m47 0v1-1m-38 1v1h4l-4-1m25 0v1h4l-4-1m-437 6 1 1-1-1m2 1 1 1-1-1m2 1 1 1-1-1m844 0 1 1-1-1m-842 1 1 1-1-1m840 0 1 1-1-1m-838 1 1 1-1-1m836 0 1 1-1-1m-834 1 1 1-1-1m832 0 1 1-1-1m-830 1 1 1-1-1m828 0 1 1-1-1m-826 1 1 1-1-1m824 0 1 1-1-1m-822 1 1 1-1-1m820 0 1 1-1-1m-818 1 1 1-1-1m816 0 1 1-1-1m-814 1 1 1-1-1m812 0 1 1-1-1m-810 1 1 1-1-1m808 0 1 1-1-1m-806 1 1 1-1-1m804 0 1 1-1-1m-802 1 1 1-1-1m800 0 1 1-1-1m-798 1 1 1-1-1m796 0 1 1-1-1m-2 1 1 1-1-1m-775 9 1 1-1-1m2 1 1 1-1-1m754 0 1 1-1-1m-752 1 1 1-1-1m750 0 1 1-1-1m-748 1 1 1-1-1m746 0 1 1-1-1m-744 1 1 1-1-1m742 0 1 1-1-1m-740 1 1 1-1-1m738 0 1 1-1-1m-736 1 1 1-1-1m734 0 1 1-1-1m-732 1 1 1-1-1m730 0 1 1-1-1m-728 1 1 1-1-1m726 0 1 1-1-1m-724 1 1 1-1-1m722 0 1 1-1-1m-720 1 1 1-1-1m718 0 1 1-1-1m-716 1 1 1-1-1m714 0 1 1-1-1m-712 1 1 1-1-1m710 0 1 1-1-1m-708 1 1 1-1-1m706 0 1 1-1-1m-2 1 1 1-1-1m-2 1 1 1-1-1m-681 9 1 1-1-1m2 1 1 1-1-1m660 0 1 1-1-1m-658 1 1 1-1-1m656 0 1 1-1-1m-654 1 1 1-1-1m652 0 1 1-1-1m-650 1 1 1-1-1m648 0 1 1-1-1m-646 1 1 1-1-1m644 0 1 1-1-1m-642 1 1 1-1-1m640 0 1 1-1-1m-638 1 1 1-1-1m636 0 1 1-1-1m-634 1 1 1-1-1m632 0 1 1-1-1m-630 1 1 1-1-1m628 0 1 1-1-1m-626 1 1 1-1-1m624 0 1 1-1-1m-622 1 1 1-1-1m620 0 1 1-1-1m-618 1 1 1-1-1m616 0 1 1-1-1m-614 1 1 1-1-1m612 0 1 1-1-1m-2 1 1 1-1-1m-589 10 1 1-1-1m2 1 1 1-1-1m566 0 1 1-1-1m-564 1 1 1-1-1m562 0 1 1-1-1m-560 1 1 1-1-1m558 0 1 1-1-1m-556 1 1 1-1-1m554 0 1 1-1-1m-552 1 1 1-1-1m550 0 1 1-1-1m-548 1 1 1-1-1m546 0 1 1-1-1m-544 1 1 1-1-1m542 0 1 1-1-1m-540 1 1 1-1-1m538 0 1 1-1-1m-536 1 1 1-1-1m534 0 1 1-1-1m-532 1 1 1-1-1m530 0 1 1-1-1m-528 1 1 1-1-1m526 0 1 1-1-1m-524 1 1 1-1-1m522 0 1 1-1-1m-2 1 1 1-1-1m-2 1 1 1-1-1m-495 10 1 1-1-1m2 1 1 1-1-1m472 0 1 1-1-1m-470 1 1 1-1-1m468 0 1 1-1-1m-466 1 1 1-1-1m464 0 1 1-1-1m-462 1 1 1-1-1m460 0 1 1-1-1m-458 1 1 1-1-1m456 0 1 1-1-1m-454 1 1 1-1-1m452 0 1 1-1-1m-450 1 1 1-1-1m448 0 1 1-1-1m-446 1 1 1-1-1m444 0 1 1-1-1m-442 1 1 1-1-1m440 0 1 1-1-1m-438 1 1 1-1-1m436 0 1 1-1-1m-668 1 1 1-1-1z"/>
</svg>